<?xml version="1.0" standalone="yes"?>
<svg xmlns="http://www.w3.org/2000/svg" width="428" height="559">
<path style="fill:#ffffff; stroke:none;" d="M0 0L0 559L428 559L428 0L0 0z"/>
<path style="fill:#010101; stroke:none;" d="M86 440L53 440C51.0622 440 42.1589 438.994 42.9213 442.83C43.6559 446.527 54.3241 445 57 445L102 445L293 445L347 445C349.967 445 363.299 446.753 364.079 442.83C364.928 438.556 351.326 440 349 440L300 440L91 440L91 113L266 113L266 152C237.573 155.847 237.573 195.153 266 199L266 261C266 263.574 264.46 279.947 268.83 279.079C272.329 278.383 271 269.473 271 267L271 227C271 220.244 268.314 206.089 272.028 200.302C274.008 197.217 279.078 196.367 281.96 194.211C288.16 189.573 291.378 181.649 290.906 174C290.49 167.257 287.234 161.094 281.91 156.928C278.177 154.008 272.013 153.311 271.148 147.981C269.707 139.099 271.001 128.999 271 120C271 116.659 271.937 111.2 268.682 109.028C263.744 105.733 251.786 108 246 108L188 108L114 108C107.966 108 92.4306 105.205 87.6034 109.028C83.7464 112.083 86 125.474 86 130L86 191L86 440z"/>
<path style="fill:#ffffff; stroke:none;" d="M264 157.469C240.581 161.888 247.679 197.806 271 193.671C294.609 189.484 287.418 153.051 264 157.469z"/>
</svg>
