<?xml version="1.0" standalone="yes"?>
<svg xmlns="http://www.w3.org/2000/svg" width="428" height="559">
<path style="fill:#ffffff; stroke:none;" d="M0 0L0 559L428 559L428 0L0 0z"/>
<path style="fill:#010101; stroke:none;" d="M86 440L53 440C51.0622 440 42.1589 438.994 42.9213 442.83C43.6559 446.527 54.3241 445 57 445L102 445L293 445L347 445C349.967 445 363.299 446.753 364.079 442.83C364.928 438.556 351.326 440 349 440L300 440L91 440L91 113L266 113L266 152C242.664 155.158 234.858 188.328 259 197.438C278.583 204.827 298.099 183.961 288.573 165.001C285.059 158.007 273.047 155.273 271.318 148.942C268.406 138.279 276.164 119.597 269.972 110.318C267.8 107.063 262.341 108 259 108L230 108L123 108L97 108C94.197 108 89.0248 107.082 87.0278 109.603C83.5385 114.009 86 127.533 86 133L86 196L86 440z"/>
<path style="fill:#ffffff; stroke:none;" d="M264 157.469C240.581 161.888 247.679 197.806 271 193.671C294.609 189.484 287.418 153.051 264 157.469z"/>
</svg>
