<?xml version="1.0" standalone="yes"?>
<svg xmlns="http://www.w3.org/2000/svg" width="428" height="559">
<path style="fill:#ffffff; stroke:none;" d="M0 0L0 559L428 559L428 0L0 0z"/>
<path style="fill:#010101; stroke:none;" d="M86 440L53 440C51.0622 440 42.1589 438.994 42.9213 442.83C43.6559 446.527 54.3241 445 57 445L102 445L293 445L347 445C349.967 445 363.299 446.753 364.079 442.83C364.928 438.556 351.326 440 349 440L300 440L91 440L91 113L266 113L266 152C237.573 155.847 237.573 195.153 266 199L266 251C266 258.09 267.865 268.305 265.397 275C262.124 283.876 249.604 292.396 243 299C235.335 306.665 227.595 314.262 220.005 322C218.454 323.58 213.458 327.623 215.176 330.338C217.684 334.301 227.385 322.615 229 321L257 293C261.197 288.803 267.285 284.374 269.972 279C272.634 273.676 271 264.829 271 259C271 241.863 266.815 218.55 271.318 202.058C272.551 197.541 278.582 196.737 281.96 194.211C288.431 189.37 291.652 180.954 290.826 173C290.12 166.213 286.523 160.171 280.961 156.225C278.071 154.174 273.104 153.348 271.603 149.856C268.415 142.436 271 129.043 271 121C271 117.694 271.981 112.188 269.397 109.603C265.208 105.415 250.602 108 245 108L176 108L111 108C105.533 108 92.009 105.538 87.6034 109.028C83.7464 112.083 86 125.474 86 130L86 191L86 440z"/>
<path style="fill:#ffffff; stroke:none;" d="M264 157.469C240.581 161.888 247.679 197.806 271 193.671C294.609 189.484 287.418 153.051 264 157.469z"/>
</svg>
