<?xml version="1.0" standalone="yes"?>
<svg xmlns="http://www.w3.org/2000/svg" width="428" height="559">
<path style="fill:#ffffff; stroke:none;" d="M0 0L0 559L428 559L428 0L0 0z"/>
<path style="fill:#010101; stroke:none;" d="M86 440L53 440C51.0622 440 42.1589 438.994 42.9213 442.83C43.6559 446.527 54.3241 445 57 445L102 445L293 445L347 445C349.967 445 363.299 446.753 364.079 442.83C364.928 438.556 351.326 440 349 440L300 440L91 440L91 113L266 113L266 152C237.573 155.847 237.573 195.153 266 199C266 215.823 250.227 225.773 239 237C236.088 239.912 226.141 246.991 226.921 251.663C227.855 257.248 240.702 243.298 242 242L251 233L266 218L266 260C266 265.757 267.332 273.129 263.682 278C253.565 291.503 238.934 303.066 227 315C224.088 317.912 214.141 324.991 214.921 329.663C215.849 335.216 227.788 322.212 229 321C242.093 307.907 258.338 295.135 269 280L310 321C311.038 322.038 325.073 335.807 324.079 328.847C323.363 323.838 315.383 318.383 312 315L283 286C279.084 282.084 272.724 277.608 271.318 272C267.527 256.879 271 236.613 271 221C271 215.304 269.33 206.435 271.603 201.144C273.211 197.403 278.89 196.507 281.96 194.211C287.615 189.98 290.802 182.997 290.946 176C291.099 168.552 287.784 161.524 281.91 156.928C278.591 154.332 272.539 153.413 271.318 148.942C269.071 140.714 271 129.523 271 121C271 117.694 271.981 112.188 269.397 109.603C265.208 105.415 250.602 108 245 108L176 108L111 108C105.533 108 92.009 105.538 87.6034 109.028C83.7464 112.083 86 125.474 86 130L86 191L86 440z"/>
<path style="fill:#ffffff; stroke:none;" d="M264 157.469C240.581 161.888 247.679 197.806 271 193.671C294.609 189.484 287.418 153.051 264 157.469z"/>
</svg>
