<?xml version="1.0" standalone="yes"?>
<svg xmlns="http://www.w3.org/2000/svg" width="428" height="559">
<path style="fill:#ffffff; stroke:none;" d="M0 0L0 559L428 559L428 0L0 0z"/>
<path style="fill:#010101; stroke:none;" d="M86 440L53 440C51.0622 440 42.1589 438.994 42.9213 442.83C43.6559 446.527 54.3241 445 57 445L102 445L293 445L347 445C349.967 445 363.299 446.753 364.079 442.83C364.928 438.556 351.326 440 349 440L300 440L91 440L91 113L266 113L266 146C266 147.938 264.994 156.841 268.83 156.079C272.069 155.435 271 148.258 271 146L271 120C271 116.899 271.822 112.029 269.397 109.603C266.971 107.178 262.101 108 259 108L233 108L127 108L98 108C95.0196 108 89.1473 106.927 87.0278 109.603C83.5385 114.009 86 127.533 86 133L86 196L86 440z"/>
</svg>
