<?xml version="1.0" standalone="yes"?>
<svg xmlns="http://www.w3.org/2000/svg" width="428" height="559">
<path style="fill:#ffffff; stroke:none;" d="M0 0L0 559L428 559L428 0L0 0z"/>
<path style="fill:#010101; stroke:none;" d="M86 440L53 440C51.0622 440 42.1589 438.994 42.9213 442.83C43.6559 446.527 54.3241 445 57 445L102 445L293 445L347 445C349.967 445 363.299 446.753 364.079 442.83C364.928 438.556 351.326 440 349 440L300 440L91 440L91 113L266 113L266 152C237.573 155.847 237.573 195.153 266 199C266 215.823 250.227 225.773 239 237C236.088 239.912 226.141 246.991 226.921 251.663C227.855 257.248 240.702 243.298 242 242L251 233L266 218L266 260C266 265.757 267.332 273.129 263.682 278C253.565 291.503 238.934 303.066 227 315C224.088 317.912 214.141 324.991 214.921 329.663C215.849 335.216 227.788 322.212 229 321C242.093 307.907 258.338 295.135 269 280L270 280C280.662 295.135 296.907 307.907 310 321C311.212 322.212 323.151 335.216 324.079 329.663C324.859 324.991 314.912 317.912 312 315C299.422 302.422 283.981 290.231 273.318 276C269.81 271.318 271 264.529 271 259L271 220C279.665 228.665 288.252 237.415 297 245.995C297.908 246.886 306.937 254.853 306.079 248.847C305.538 245.062 300.521 241.522 298 239C290.701 231.697 272.78 219.524 271.148 209C269.072 195.612 287.265 194.24 290.319 181C292.39 172.027 289.187 162.622 281.91 156.928C278.591 154.332 272.539 153.413 271.318 148.942C269.071 140.714 271 129.523 271 121C271 117.694 271.981 112.188 269.397 109.603C265.208 105.415 250.602 108 245 108L176 108L111 108C105.533 108 92.009 105.538 87.6034 109.028C83.7464 112.083 86 125.474 86 130L86 191L86 440z"/>
<path style="fill:#ffffff; stroke:none;" d="M264 157.469C240.581 161.888 247.679 197.806 271 193.671C294.609 189.484 287.418 153.051 264 157.469z"/>
</svg>
